<svg width="160" height="160" viewBox="0 0 160 160" fill="none" xmlns="http://www.w3.org/2000/svg">
<rect x="4" y="4" width="152" height="152" fill="#060303" stroke="#00F58C" stroke-width="8" stroke-dasharray="1 1"/>
<path d="M43.0653 30.0909V36.4545H22.429V30.0909H43.0653ZM27.5881 65V26.7955C27.5881 24.447 28.0729 22.4924 29.0426 20.9318C30.0275 19.3712 31.3456 18.2045 32.9972 17.4318C34.6487 16.6591 36.482 16.2727 38.4972 16.2727C39.9214 16.2727 41.1866 16.3864 42.2926 16.6136C43.3987 16.8409 44.2169 17.0455 44.7472 17.2273L43.1108 23.5909C42.7623 23.4848 42.3229 23.3788 41.7926 23.2727C41.2623 23.1515 40.6714 23.0909 40.0199 23.0909C38.4896 23.0909 37.4063 23.4621 36.7699 24.2045C36.1487 24.9318 35.8381 25.9773 35.8381 27.3409V65H27.5881ZM71.7585 50.3182V30.0909H79.9858V65H72.0085V58.7955H71.6449C70.857 60.75 69.5616 62.3485 67.7585 63.5909C65.9706 64.8333 63.7661 65.4545 61.1449 65.4545C58.857 65.4545 56.8343 64.947 55.0767 63.9318C53.3343 62.9015 51.9706 61.4091 50.9858 59.4545C50.0009 57.4848 49.5085 55.1061 49.5085 52.3182V30.0909H57.7358V51.0455C57.7358 53.2576 58.3419 55.0152 59.554 56.3182C60.7661 57.6212 62.357 58.2727 64.3267 58.2727C65.5388 58.2727 66.7131 57.9773 67.8494 57.3864C68.9858 56.7955 69.9176 55.9167 70.6449 54.75C71.3873 53.5682 71.7585 52.0909 71.7585 50.3182ZM103.901 65.6818C100.401 65.6818 97.3778 64.9545 94.8324 63.5C92.3021 62.0303 90.3551 59.9545 88.9915 57.2727C87.6278 54.5758 86.946 51.4015 86.946 47.75C86.946 44.1591 87.6278 41.0076 88.9915 38.2955C90.3703 35.5682 92.2945 33.447 94.7642 31.9318C97.2339 30.4015 100.135 29.6364 103.469 29.6364C105.62 29.6364 107.651 29.9848 109.56 30.6818C111.484 31.3636 113.181 32.4242 114.651 33.8636C116.135 35.303 117.302 37.1364 118.151 39.3636C118.999 41.5758 119.423 44.2121 119.423 47.2727V49.7955H90.8097V44.25H111.537C111.522 42.6742 111.181 41.2727 110.514 40.0455C109.848 38.803 108.916 37.8258 107.719 37.1136C106.537 36.4015 105.158 36.0455 103.582 36.0455C101.901 36.0455 100.423 36.4545 99.1506 37.2727C97.8778 38.0758 96.8854 39.1364 96.1733 40.4545C95.4763 41.7576 95.1203 43.1894 95.1051 44.75V49.5909C95.1051 51.6212 95.4763 53.3636 96.2188 54.8182C96.9612 56.2576 97.9991 57.3636 99.3324 58.1364C100.666 58.8939 102.226 59.2727 104.014 59.2727C105.211 59.2727 106.295 59.1061 107.264 58.7727C108.234 58.4242 109.075 57.9167 109.787 57.25C110.499 56.5833 111.037 55.7576 111.401 54.7727L119.082 55.6364C118.598 57.6667 117.673 59.4394 116.31 60.9545C114.961 62.4545 113.234 63.6212 111.128 64.4545C109.022 65.2727 106.613 65.6818 103.901 65.6818ZM134.611 18.4545V65H126.384V18.4545H134.611ZM35.7045 95.4545V142H27.4773V95.4545H35.7045ZM59.6193 142.682C56.1193 142.682 53.0966 141.955 50.5511 140.5C48.0208 139.03 46.0739 136.955 44.7102 134.273C43.3466 131.576 42.6648 128.402 42.6648 124.75C42.6648 121.159 43.3466 118.008 44.7102 115.295C46.089 112.568 48.0133 110.447 50.483 108.932C52.9527 107.402 55.8542 106.636 59.1875 106.636C61.339 106.636 63.3693 106.985 65.2784 107.682C67.2027 108.364 68.8996 109.424 70.3693 110.864C71.8542 112.303 73.0208 114.136 73.8693 116.364C74.7178 118.576 75.142 121.212 75.142 124.273V126.795H46.5284V121.25H67.2557C67.2405 119.674 66.8996 118.273 66.233 117.045C65.5663 115.803 64.6345 114.826 63.4375 114.114C62.2557 113.402 60.8769 113.045 59.3011 113.045C57.6193 113.045 56.142 113.455 54.8693 114.273C53.5966 115.076 52.6042 116.136 51.892 117.455C51.1951 118.758 50.839 120.189 50.8239 121.75V126.591C50.8239 128.621 51.1951 130.364 51.9375 131.818C52.6799 133.258 53.7178 134.364 55.0511 135.136C56.3845 135.894 57.9451 136.273 59.733 136.273C60.9299 136.273 62.0133 136.106 62.983 135.773C63.9527 135.424 64.7936 134.917 65.5057 134.25C66.2178 133.583 66.7557 132.758 67.1193 131.773L74.8011 132.636C74.3163 134.667 73.392 136.439 72.0284 137.955C70.6799 139.455 68.9527 140.621 66.8466 141.455C64.7405 142.273 62.3314 142.682 59.6193 142.682ZM95.0568 142.614C92.3144 142.614 89.8598 141.909 87.6932 140.5C85.5265 139.091 83.8144 137.045 82.5568 134.364C81.2992 131.682 80.6705 128.424 80.6705 124.591C80.6705 120.712 81.3068 117.439 82.5795 114.773C83.8674 112.091 85.6023 110.068 87.7841 108.705C89.9659 107.326 92.3977 106.636 95.0795 106.636C97.125 106.636 98.8068 106.985 100.125 107.682C101.443 108.364 102.489 109.189 103.261 110.159C104.034 111.114 104.633 112.015 105.057 112.864H105.398V95.4545H113.648V142H105.557V136.5H105.057C104.633 137.348 104.019 138.25 103.216 139.205C102.413 140.144 101.352 140.947 100.034 141.614C98.7159 142.28 97.0568 142.614 95.0568 142.614ZM97.3523 135.864C99.0947 135.864 100.58 135.394 101.807 134.455C103.034 133.5 103.966 132.174 104.602 130.477C105.239 128.78 105.557 126.803 105.557 124.545C105.557 122.288 105.239 120.326 104.602 118.659C103.981 116.992 103.057 115.697 101.83 114.773C100.617 113.848 99.125 113.386 97.3523 113.386C95.5189 113.386 93.9886 113.864 92.7614 114.818C91.5341 115.773 90.6098 117.091 89.9886 118.773C89.3674 120.455 89.0568 122.379 89.0568 124.545C89.0568 126.727 89.3674 128.674 89.9886 130.386C90.625 132.083 91.5568 133.424 92.7841 134.409C94.0265 135.379 95.5492 135.864 97.3523 135.864Z" fill="white"/>
<path d="M127.483 142.5C126.104 142.5 124.922 142.015 123.938 141.045C122.953 140.076 122.468 138.894 122.483 137.5C122.468 136.136 122.953 134.97 123.938 134C124.922 133.03 126.104 132.545 127.483 132.545C128.816 132.545 129.975 133.03 130.96 134C131.96 134.97 132.468 136.136 132.483 137.5C132.468 138.424 132.225 139.265 131.756 140.023C131.301 140.78 130.695 141.386 129.938 141.841C129.195 142.28 128.377 142.5 127.483 142.5Z" fill="#00F58C"/>
</svg>
